<mxfile host="app.diagrams.net" modified="2023-09-05T14:41:05.953Z" agent="Mozilla/5.0 (Windows NT 10.0; Win64; x64) AppleWebKit/537.36 (KHTML, like Gecko) Chrome/116.0.0.0 Safari/537.36 Edg/116.0.1938.69" version="21.7.1" etag="8CauZOyqJEesNAwd7dHi" type="github">
  <diagram name="Page-1" id="HDLZt7XarpedacUDO0oT">
    <mxGraphModel>
      <root>
        <mxCell id="0" />
        <mxCell id="1" parent="0" />
      </root>
    </mxGraphModel>
  </diagram>
</mxfile>
